<svg width="200" height="200" viewBox="0 0 200 200" fill="none" xmlns="http://www.w3.org/2000/svg">
<path d="M38 29V177H73M38 29L52 17H87.5M38 29H73M73 177L87.5 165V17M73 177V29M87.5 17L73 29M164 32C158 15 127 16 123 36C119 56 171.5 48 168.5 73.5C165.5 99 112.5 96 119 68.5M122 119.5C122 102 160 97 164 122C168 147 119 137 119 172H157.5C157.5 172 166.5 172 166.5 166" stroke="#52C556" stroke-width="5" stroke-linecap="round"/>
<path d="M31 35V183H66M31 35L45 23H80.5M31 35H66M66 183L80.5 171V23M66 183V35M80.5 23L66 35M157 38C151 21 120 22 116 42C112 62 164.5 54 161.5 79.5C158.5 105 105.5 102 112 74.5M115 125.5C115 108 153 103 157 128C161 153 112 143 112 178H150.5C150.5 178 159.5 178 159.5 172" stroke="#EEFFF0" stroke-width="5" stroke-linecap="round"/>
</svg>
